# xmcd
#
# Track frame offsets:
# 150
# 9671
# 17319
# 30766
# 47818
# 57876
# 64659
# 76241
# 87705
# 103999
# 121039
# 131269
# 141364
# 155167
# 165751
#
# Disc length: 2388 seconds
#
#
# Revision: 0
# Processed by: cddbd v1.5.2PL0 Copyright (c) Steve Scherf et al.
# Submitted via: FreeRIP 2.944 
#
DISCID=b309520f
DTITLE=diverse - Die 60 beliebtesten Seemannslieder CD2
DYEAR=1900
DGENRE=Shanties
TTITLE0=Geraldine Oliver - Im roten Licht der Hafenbar
TTITLE1=Jonny Tailor und die Moderatos - So'n lütten Buddel Rum
TTITLE2=Heidi Kabel - Wo die Nordseewellen (Friesenlied)
TTITLE3=Der grosse Hamburger Seemannschor - Hamburger Veermaster
TTITLE4=Jonny Hill - Das ist die Liebe der Matrosen
TTITLE5=Die Finkwarder Speeldeel - Finkwarder blifft Finkwarder
TTITLE6=Freddy Quinn - Die Gitarre und das Meer
TTITLE7=Ulla Norden - In der kleinen Hafenstadt
TTITLE8=Heinz Köllisch und die Hamburger Stimmungskapelle - Gloro-Glori-Hallelujah
TTITLE9=Dieter Dorning - Ave Maria der Meere
TTITLE10=Hans Meer - Meine Heimat ist der Ozean
TTITLE11=Lolita - Fahr' mit in die Ferne, mein kleiner Matrose
TTITLE12=Sigrid and Marina - La Paloma Blue
TTITLE13=Marinechor der Schwarzmeerflotte - Mädchen vom Schwarzen Meer
TTITLE14=Judith and Mel - Jedes Schiff braucht einen Hafen
EXTD=
EXTT0=
EXTT1=
EXTT2=
EXTT3=
EXTT4=
EXTT5=
EXTT6=
EXTT7=
EXTT8=
EXTT9=
EXTT10=
EXTT11=
EXTT12=
EXTT13=
EXTT14=
PLAYORDER=
